<svg aria-hidden="true" style="position:absolute;width:0;height:0" xmlns="http://www.w3.org/2000/svg" overflow="hidden"><defs><symbol id="IMAGE" viewBox="0 0 34 32"><path fill="var(--color1, #95e1d3)" d="M30.588 31.059H3.294a1.41 1.41 0 01-1.412-1.412V2.353A1.41 1.41 0 013.294.941h27.294A1.41 1.41 0 0132 2.353v27.294a1.41 1.41 0 01-1.412 1.412zM29.176 3.765H4.705v24.471h24.471V3.765zM8 5.176h5.176c.781 0 1.412.631 1.412 1.412S13.957 8 13.176 8H8.941v4.235c0 .781-.631 1.412-1.412 1.412s-1.412-.631-1.412-1.412V5.176h1.882zM6.118 19.765c0-.781.631-1.412 1.412-1.412s1.412.631 1.412 1.412V24h4.235c.781 0 1.412.631 1.412 1.412s-.631 1.412-1.412 1.412H6.118v-7.059zM20.706 5.176h7.059v7.059c0 .781-.631 1.412-1.412 1.412s-1.412-.631-1.412-1.412V8h-4.235c-.781 0-1.412-.631-1.412-1.412s.631-1.412 1.412-1.412zm0 18.824h4.235v-4.235c0-.781.631-1.412 1.412-1.412s1.412.631 1.412 1.412v7.059h-7.059c-.781 0-1.412-.631-1.412-1.412S19.925 24 20.706 24z"/></symbol><symbol id="HOME" viewBox="0 0 34 32"><path fill="var(--color1, #95e1d3)" d="M32.97 16.97c0 .805-.65 1.455-1.455 1.455-.388 0-.727-.155-.989-.398v.01L17.454 4.965 4.412 18.007a1.453 1.453 0 11-2.027-2.085L16.407 1.9c.262-.272.64-.446 1.047-.446h.088c.019 0 .049.01.068.01.359.039.679.204.912.456l5.721 5.721V6.303c0-.805.65-1.455 1.455-1.455s1.455.65 1.455 1.455v4.247l5.43 5.43h-.01c.242.262.398.601.398.989zm-2.909 2.424v10.182c0 .805-.65 1.455-1.455 1.455h-2.909V19.395h-5.818v11.636H6.303c-.805 0-1.455-.65-1.455-1.455V19.394L17.454 6.788 30.06 19.394zm-15.031 0H9.212v5.818h5.818v-5.818z"/></symbol><symbol id="CART" viewBox="0 0 38 32"><path fill="var(--color2, #fff)" d="M35.256 8.772l-4.668 10.353a1.545 1.545 0 01-1.318.922l-13.402.885.772 2.221h14.607c1.713 0 3.106 1.393 3.106 3.106s-1.393 3.106-3.106 3.106a3.11 3.11 0 01-3.106-3.106H13.647c0 1.713-1.393 3.106-3.106 3.106s-3.106-1.393-3.106-3.106a3.11 3.11 0 013.106-3.106h2.805L7.36 6.061H3.802c-.847 0-1.544-.678-1.544-1.544s.696-1.562 1.544-1.562H8.47c.678 0 1.242.452 1.468 1.054l.904 2.579h22.984a1.554 1.554 0 011.43 2.184zm-23.322.922l2.861 8.207 13.346-.904 3.294-7.304H11.934z"/></symbol><symbol id="GLASS" viewBox="0 0 32 32"><path fill="var(--color2, #fff)" d="M29.312 25.568c.48.48.768 1.136.768 1.872a2.643 2.643 0 01-2.64 2.64 2.69 2.69 0 01-1.872-.768l-7.728-7.744a10.518 10.518 0 01-5.36 1.472c-5.84 0-10.56-4.736-10.56-10.56 0-5.84 4.72-10.56 10.56-10.56s10.56 4.72 10.56 10.56c0 1.952-.544 3.776-1.472 5.36l7.744 7.728zM12.48 4.56c-4.368 0-7.92 3.552-7.92 7.92s3.552 7.92 7.92 7.92 7.92-3.552 7.92-7.92-3.552-7.92-7.92-7.92z"/></symbol><symbol id="ALARM" viewBox="0 0 32 32"><path fill="var(--color1, #95e1d3)" d="M29.873 10.824a14.802 14.802 0 00-7.755-7.755 5.468 5.468 0 013.416-1.186 5.527 5.527 0 015.525 5.525 5.487 5.487 0 01-1.186 3.416zm-.226 6.117c0 3.624-1.421 6.908-3.727 9.355l1.911 1.911c.245.254.405.602.405.988a1.39 1.39 0 01-1.393 1.393c-.386 0-.734-.16-.988-.405l-2.052-2.052c-2.212 1.544-4.904 2.456-7.802 2.456s-5.581-.913-7.793-2.447l-2.033 2.033a1.41 1.41 0 11-1.996-1.996l1.892-1.892c-2.296-2.447-3.718-5.722-3.718-9.346C2.353 9.4 8.461 3.292 16 3.292S29.647 9.4 29.647 16.939zM16 6.118c-5.976 0-10.824 4.847-10.824 10.824S10.023 27.766 16 27.766c5.976 0 10.824-4.847 10.824-10.824S21.977 6.118 16 6.118zm5.647 12.235H16a1.41 1.41 0 01-1.412-1.412V9.412C14.588 8.631 15.219 8 16 8s1.412.631 1.412 1.412v6.118h4.235c.781 0 1.412.631 1.412 1.412s-.631 1.412-1.412 1.412zM2.155 11.021A5.616 5.616 0 01.941 7.529a5.652 5.652 0 015.647-5.647c1.318 0 2.532.452 3.492 1.214a15.037 15.037 0 00-7.925 7.925z"/></symbol><symbol id="LINE-GRAPH" viewBox="0 0 32 32"><path fill="var(--color1, #95e1d3)" d="M28.8 31.086H2.286a1.37 1.37 0 01-1.371-1.371V3.201A1.37 1.37 0 012.286 1.83H28.8a1.37 1.37 0 011.371 1.371v26.514a1.37 1.37 0 01-1.371 1.371zM27.429 4.571H3.658v23.771h23.771V4.571zM5.687 16.677h-.009l3.657-2.286h.009c.201-.128.448-.201.713-.201.283 0 .549.082.768.229h.009l6.062 4.041 6.976-4.937c.229-.165.512-.256.814-.256a1.37 1.37 0 01.804 2.477l-7.771 5.486a1.367 1.367 0 01-.805.265c-.293 0-.567-.101-.786-.256l-6.089-4.05-2.862 1.783a1.357 1.357 0 01-.777.247 1.37 1.37 0 01-.713-2.541z"/></symbol><symbol id="COMPUTER-_-OK" viewBox="0 0 35 32"><path fill="var(--color1, #95e1d3)" d="M32 25.806h-9.806v2.581l2.065 2.065v.516H10.84v-.516l2.065-2.065v-2.581H3.099a1.546 1.546 0 01-1.548-1.548V3.613c0-.857.692-1.548 1.548-1.548h28.903c.857 0 1.548.692 1.548 1.548v20.645c0 .857-.692 1.548-1.548 1.548zm-.516-21.677H3.613v17.548h27.871V4.129zm-17.032 7.226c.423 0 .815.175 1.094.454l.97.97 3.035-3.035a1.546 1.546 0 112.188 2.188l-4.129 4.129c-.279.279-.671.454-1.094.454s-.815-.175-1.094-.454l-2.065-2.065a1.546 1.546 0 011.094-2.642z"/></symbol><symbol id="BOOK" viewBox="0 0 33 32"><path fill="var(--color1, #95e1d3)" d="M31.115 25.308l-13.619 5.638c-.169.075-.358.113-.555.113s-.386-.038-.555-.113L2.767 25.308A1.41 1.41 0 011.882 24V2.353A1.41 1.41 0 013.83 1.045h.009c0 .009 0 .009.009.009L16.94 6.475l13.092-5.421s.009 0 .009-.009h.009a1.41 1.41 0 011.948 1.308V24a1.41 1.41 0 01-.885 1.308zM15.529 8.941L4.705 4.461v18.598l10.824 4.48V8.941zm13.647-4.48l-10.824 4.48v18.598l10.824-4.48V4.461zm-8.583 6.485l5.176-2.353a1.51 1.51 0 01.584-.122 1.41 1.41 0 011.412 1.412c0 .574-.339 1.064-.828 1.289l-5.176 2.353a1.51 1.51 0 01-.584.122 1.41 1.41 0 01-1.412-1.412c0-.574.339-1.064.828-1.289zm0 5.176l5.176-2.353a1.51 1.51 0 01.584-.122 1.41 1.41 0 011.412 1.412c0 .574-.339 1.064-.828 1.289l-5.176 2.353v-.009a1.355 1.355 0 01-.584.132 1.41 1.41 0 01-1.412-1.412c0-.574.339-1.064.828-1.289zm0 5.177l5.176-2.353a1.51 1.51 0 01.584-.122 1.41 1.41 0 011.412 1.412c0 .574-.339 1.064-.828 1.289l-5.176 2.353a1.51 1.51 0 01-.584.122 1.41 1.41 0 01-1.412-1.412c0-.574.339-1.064.828-1.289zM7.529 8.471c.207 0 .405.047.584.122l5.176 2.353c.489.226.828.715.828 1.289a1.41 1.41 0 01-1.412 1.412c-.207 0-.405-.047-.584-.122l-5.176-2.353a1.417 1.417 0 01-.828-1.289 1.41 1.41 0 011.412-1.412zm0 5.176c.207 0 .405.047.584.122l5.176 2.353c.489.226.828.715.828 1.289a1.41 1.41 0 01-1.412 1.412c-.207 0-.405-.047-.584-.132v.009l-5.176-2.353a1.417 1.417 0 01-.828-1.289 1.41 1.41 0 011.412-1.412zm0 5.177c.207 0 .405.047.584.122l5.176 2.353c.489.226.828.715.828 1.289A1.41 1.41 0 0112.705 24c-.207 0-.405-.047-.584-.122l-5.176-2.353a1.417 1.417 0 01-.828-1.289 1.41 1.41 0 011.412-1.412z"/></symbol></defs></svg>