<svg xmlns="http://www.w3.org/2000/svg" viewBox="0 0 68 68" width="68" height="68"><style/><g id="service"><g id="1"><path id="ALARM" d="M63.48 23.01A31.425 31.425 0 0046.99 6.52c2-1.57 4.52-2.52 7.26-2.52C60.74 4 66 9.26 66 15.75c0 2.74-.95 5.26-2.52 7.26zM63 36c0 7.7-3.02 14.69-7.93 19.88l4.06 4.06c.54.53.87 1.27.87 2.09A2.97 2.97 0 0157.03 65c-.82 0-1.56-.33-2.09-.87l-4.36-4.36A28.807 28.807 0 0134 65a28.77 28.77 0 01-16.55-5.21l-4.33 4.33a2.996 2.996 0 11-4.24-4.24l4.02-4.03C8.02 50.66 5 43.69 5 36 5 19.98 17.98 7 34 7s29 12.98 29 29zM34 13c-12.7 0-23 10.3-23 23s10.3 23 23 23 23-10.3 23-23-10.3-23-23-23zm12 26H34c-1.66 0-3-1.34-3-3V20c0-1.66 1.34-3 3-3s3 1.34 3 3v13h9c1.66 0 3 1.34 3 3s-1.34 3-3 3zM4.57 23.41C2.97 21.37 2 18.8 2 16 2 9.37 7.37 4 14 4c2.8 0 5.37.97 7.41 2.57A32.16 32.16 0 004.57 23.41z" fill="#95e1d3"/></g></g></svg>