<svg xmlns="http://www.w3.org/2000/svg" viewBox="0 0 70 68" width="70" height="68"><style/><g id="service"><g id="4"><path id="BOOK 2" d="M66.13 53.78L37.19 65.75c-.37.16-.77.25-1.19.25-.42 0-.82-.09-1.19-.25L5.87 53.78A2.997 2.997 0 014 51V5a2.996 2.996 0 014.15-2.77c.01 0 .02.01.03.01L36 13.75 63.82 2.24c.01 0 .02-.01.03-.01A2.996 2.996 0 0168 5v46c0 1.26-.77 2.33-1.87 2.78zM33 19.01L10 9.49v39.5l23 9.52v-39.5zm29-9.52l-23 9.52v39.5l23-9.52V9.49zM43.76 23.27l11-5A2.996 2.996 0 0159 21c0 1.21-.72 2.26-1.76 2.73l-11 5A2.996 2.996 0 0142 26c0-1.21.72-2.26 1.76-2.73zm0 11l11-5A2.996 2.996 0 0159 32c0 1.21-.72 2.26-1.76 2.73l-11 5A2.996 2.996 0 0142 37c0-1.21.72-2.26 1.76-2.73zm0 11l11-5A2.996 2.996 0 0159 43c0 1.21-.72 2.26-1.76 2.73l-11 5A2.996 2.996 0 0142 48c0-1.21.72-2.26 1.76-2.73zM16 18c.44 0 .86.1 1.24.27l11 5C29.28 23.74 30 24.79 30 26a2.996 2.996 0 01-4.24 2.73l-11-5A2.997 2.997 0 0113 21c0-1.66 1.34-3 3-3zm0 11c.44 0 .86.1 1.24.27l11 5C29.28 34.74 30 35.79 30 37a2.996 2.996 0 01-4.24 2.73l-11-5A2.997 2.997 0 0113 32c0-1.66 1.34-3 3-3zm0 11c.44 0 .86.1 1.24.27l11 5C29.28 45.74 30 46.79 30 48a2.996 2.996 0 01-4.24 2.73l-11-5A2.997 2.997 0 0113 43c0-1.66 1.34-3 3-3z" fill="#95e1d3"/></g></g></svg>