<svg xmlns="http://www.w3.org/2000/svg" viewBox="0 0 40 34" width="40" height="34"><style/><g id="banner"><g id="menu"><path id="SHOPPING CART" d="M37.45 9.33l-4.95 11c-.24.54-.77.92-1.39.97l-14.26.95.83 2.35H33.2c1.82 0 3.3 1.48 3.3 3.3 0 1.82-1.48 3.3-3.3 3.3-1.82 0-3.3-1.48-3.3-3.3H14.5c0 1.82-1.48 3.3-3.3 3.3-1.82 0-3.3-1.48-3.3-3.3 0-1.82 1.48-3.3 3.3-3.3h2.98L7.83 6.45H4.05c-.91 0-1.65-.74-1.65-1.65 0-.91.74-1.65 1.65-1.65H9c.72 0 1.33.46 1.55 1.11l.01-.01.96 2.75h24.43c.91 0 1.65.74 1.65 1.65 0 .24-.05.47-.15.68zm-24.78.97l3.05 8.71 14.18-.94 3.5-7.77H12.67z" fill="#fff"/></g></g></svg>