<svg xmlns="http://www.w3.org/2000/svg" viewBox="0 0 40 40" width="40" height="40"><style/><g id="banner"><g id="menu"><path id="MAGNIFYING GLASS" d="M36.63 31.97c.6.59.97 1.42.97 2.33 0 1.82-1.48 3.3-3.3 3.3-.91 0-1.74-.37-2.33-.97l-9.68-9.67a13.084 13.084 0 01-6.69 1.84c-7.29 0-13.2-5.91-13.2-13.2 0-7.29 5.91-13.2 13.2-13.2 7.29 0 13.2 5.91 13.2 13.2 0 2.45-.68 4.73-1.84 6.69l9.67 9.68zM15.6 5.7c-5.47 0-9.9 4.43-9.9 9.9 0 5.47 4.43 9.9 9.9 9.9 5.47 0 9.9-4.43 9.9-9.9 0-5.47-4.43-9.9-9.9-9.9z" fill="#fff"/></g></g></svg>