<svg xmlns="http://www.w3.org/2000/svg" viewBox="0 0 70 66" width="70" height="66"><style/><g id="service"><g id="5"><path id="HOME" d="M68 35c0 1.66-1.34 3-3 3-.79 0-1.5-.31-2.04-.81l-.01.01-26.87-26.88-.08-.08-26.89 26.9c-.55.53-1.29.86-2.11.86-1.66 0-3-1.34-3-3 0-.85.35-1.62.92-2.16L33.84 3.92C34.38 3.35 35.15 3 36 3h.16c.01 0 .02.01.02.01.05 0 .09 0 .14.01h.01c.73.08 1.39.42 1.86.93h.01L50 15.76V13c0-1.66 1.34-3 3-3s3 1.34 3 3v8.76l11.2 11.19-.01.01c.5.54.81 1.25.81 2.04zm-6 5v21c0 1.66-1.34 3-3 3h-6V40H41v24H13c-1.66 0-3-1.34-3-3V40l26-26 26 26zm-31 0H19v12h12V40z" fill="#95e1d3"/></g></g></svg>