<svg xmlns="http://www.w3.org/2000/svg" viewBox="0 0 72 68" width="72" height="68"><style/><g id="service"><g id="6"><path id="IMAGE" d="M65 66H7c-1.66 0-3-1.34-3-3V5c0-1.66 1.34-3 3-3h58c1.66 0 3 1.34 3 3v58c0 1.66-1.34 3-3 3zM62 8H10v52h52V8zm-45 3h11c1.66 0 3 1.34 3 3s-1.34 3-3 3h-9v9c0 1.66-1.34 3-3 3s-3-1.34-3-3V11h4zm-4 31c0-1.66 1.34-3 3-3s3 1.34 3 3v9h9c1.66 0 3 1.34 3 3s-1.34 3-3 3H13V42zm31-31h15v15c0 1.66-1.34 3-3 3s-3-1.34-3-3v-9h-9c-1.66 0-3-1.34-3-3s1.34-3 3-3zm0 40h9v-9c0-1.66 1.34-3 3-3s3 1.34 3 3v15H44c-1.66 0-3-1.34-3-3s1.34-3 3-3z" fill="#95e1d3"/></g></g></svg>