<svg xmlns="http://www.w3.org/2000/svg" viewBox="0 0 70 70" width="70" height="70"><style/><g id="service"><g id="2"><path id="LINE GRAPH" d="M63 68H5c-1.66 0-3-1.34-3-3V7c0-1.66 1.34-3 3-3h58c1.66 0 3 1.34 3 3v58c0 1.66-1.34 3-3 3zm-3-58H8v52h52V10zM12.43 36.48v-.01l8-5v.01c.46-.28.99-.45 1.57-.45.62 0 1.2.19 1.68.52l.01-.02 13.26 8.84 15.28-10.78A2.996 2.996 0 0157 32.01c0 1-.49 1.89-1.24 2.43l-17 12c-.5.36-1.1.57-1.76.57-.64 0-1.24-.2-1.72-.54l-13.32-8.88-6.27 3.92c-.48.33-1.06.52-1.69.52a2.996 2.996 0 01-1.57-5.55z" fill="#95e1d3"/></g></g></svg>