<svg xmlns="http://www.w3.org/2000/svg" viewBox="0 0 56 56" width="56" height="56"><style/><g id="our team"><g id="1"><g id="share"><path id="instagram" d="M47.4 53.6H9c-3.53 0-6.4-2.87-6.4-6.4V8.8A6.4 6.4 0 019 2.4h38.4a6.4 6.4 0 016.4 6.4v38.4c0 3.53-2.87 6.4-6.4 6.4zM28.2 18.08c-3.99 0-7.42 2.36-9 5.76h-.01c-.01.03-.02.07-.04.11-.09.21-.18.42-.26.64-.03.11-.08.21-.11.31-.07.23-.13.45-.19.68-.03.11-.06.21-.08.32-.06.24-.09.49-.13.74-.01.1-.03.2-.04.3-.04.35-.06.7-.06 1.06 0 5.48 4.44 9.92 9.92 9.92 5.48 0 9.92-4.44 9.92-9.92 0-.36-.02-.71-.06-1.06-.01-.1-.03-.2-.04-.3-.04-.25-.07-.5-.13-.74-.02-.11-.05-.21-.08-.32-.06-.23-.12-.45-.19-.68-.03-.1-.08-.2-.11-.31-.08-.22-.17-.43-.26-.64-.02-.04-.03-.08-.04-.11h-.01c-1.58-3.4-5.01-5.76-9-5.76zm19.84-7.36c0-1.42-1.15-2.56-2.56-2.56h-5.12c-1.41 0-2.56 1.14-2.56 2.56v5.12c0 1.41 1.15 2.56 2.56 2.56h5.12c1.41 0 2.56-1.15 2.56-2.56v-5.12zm0 13.12h-4.72c.36 1.32.56 2.72.56 4.16 0 8.66-7.02 15.68-15.68 15.68S12.52 36.66 12.52 28c0-1.44.2-2.84.56-4.16H8.36v21.44c0 1.41 1.15 2.56 2.56 2.56h34.56c1.41 0 2.56-1.15 2.56-2.56V23.84z" fill="#f38181"/></g></g></g></svg>