<svg xmlns="http://www.w3.org/2000/svg" viewBox="0 0 46 58" width="46" height="58"><style/><g id="our team"><g id="1"><g id="share"><path id="pinterest" d="M20.1 35.71c-.42 1.66-.84 3.41-1.27 5.12-.43 1.68-.81 3.39-1.44 4.94-1.04 2.56-2.36 5.04-4.09 7.04-1.15 1.33-.9.8-1.25.73-.26-.06-.28-.31-.34-.69-.28-2.04-.09-4.39.02-6.68.12-2.61.67-4.77 1.18-6.94.96-4.13 1.89-8.17 2.87-12.33.06-.27.24-.73.18-.89-.45-1.15-.74-2.19-.86-3.4-.15-1.39-.04-2.69.28-3.89.55-2.11 1.82-3.99 3.78-4.67 1.25-.43 2.63-.24 3.47.26.87.52 1.46 1.34 1.74 2.49.29 1.23.08 2.71-.16 3.79-.54 2.43-1.24 4.26-1.88 6.62-.31 1.16-.67 2.36-.37 3.62.27 1.16.87 1.95 1.69 2.55.85.62 1.86.96 3.25.91 2.46-.09 4.16-1.66 5.3-3.14 1.83-2.37 2.93-5.56 3.35-9.37.14-1.23.24-2.64.14-4.03-.17-2.56-.98-4.63-2.25-6.23-1.21-1.53-2.93-2.74-5.03-3.42-2.07-.68-4.94-.9-7.49-.47-4.64.8-7.9 3.43-9.83 7.07-1.01 1.9-1.67 4.09-1.67 6.82 0 2.1.51 3.73 1.35 5 .27.4.66.73.92 1.19.37.65-.06 1.62-.24 2.33-.22.85-.24 2.02-1.24 2.04-.41.01-.92-.29-1.27-.48-2.61-1.44-4.2-4.07-4.85-7.47-.39-2.07-.39-4.48 0-6.48.38-1.93 1.09-3.71 1.88-5.16 1.63-3 4.01-5.41 6.92-7.12 2.23-1.32 4.75-2.25 7.81-2.7 1.02-.14 2.07-.21 3.21-.26 3.34-.16 6.37.6 8.65 1.62 2.41 1.08 4.34 2.51 5.96 4.29 1.68 1.83 2.9 3.96 3.67 6.62.4 1.38.8 2.86.8 4.57 0 1.72-.37 3.23-.62 4.74-.95 5.66-3.64 10.28-7.68 12.92-.97.63-2.16 1.22-3.5 1.61-1.34.39-2.86.68-4.49.57-1.58-.11-2.88-.54-3.97-1.15-1.08-.61-1.98-1.36-2.63-2.49z" fill="#f38181"/></g></g></g></svg>