<svg xmlns="http://www.w3.org/2000/svg" viewBox="0 0 56 48" width="56" height="48"><style/><g id="our team"><g id="1"><g id="share"><path id="twitter" d="M37.03 3.2c4.06-.07 6.23 1.41 8.3 3.3 1.75-.15 4.04-1.13 5.38-1.82.43-.23.87-.47 1.31-.71-.77 2.07-1.81 3.7-3.41 4.93-.36.27-.71.64-1.16.82v.02c2.28-.02 4.16-1.05 5.95-1.61v.03c-.94 1.49-2.21 3-3.56 4.09-.55.43-1.1.86-1.64 1.3.03 2.41-.04 4.72-.49 6.74-2.62 11.79-9.57 19.8-20.58 23.23-3.95 1.23-10.33 1.73-14.86.61-2.24-.56-4.27-1.19-6.17-2.02-1.06-.46-2.04-.96-2.98-1.53-.31-.19-.61-.38-.92-.56 1.02.03 2.22.31 3.36.12 1.03-.16 2.04-.12 3-.33 2.37-.52 4.48-1.21 6.3-2.27.88-.52 2.22-1.12 2.84-1.87-1.18.02-2.25-.25-3.12-.56-3.4-1.2-5.38-3.4-6.67-6.72 1.03.12 4 .38 4.69-.2-1.29-.07-2.54-.82-3.43-1.38-2.73-1.71-4.96-4.58-4.95-8.99l1.08.51c.69.29 1.39.44 2.2.61.35.07 1.04.27 1.44.13h-.05c-.53-.62-1.39-1.03-1.92-1.69-1.76-2.18-3.4-5.53-2.36-9.53.26-1.01.68-1.91 1.13-2.73.01.01.03.01.05.02.2.43.66.74.95 1.1.89 1.11 2 2.11 3.12 2.99 3.84 3 7.29 4.84 12.84 6.21 1.41.35 3.03.61 4.72.61-.48-1.37-.32-3.6.05-4.93.93-3.35 2.96-5.76 5.94-7.05.71-.31 1.5-.53 2.33-.72l1.29-.15z" fill="#f38181"/></g></g></g></svg>